<svg width="100" height="100" viewBox="0 0 100 100" fill="none" xmlns="http://www.w3.org/2000/svg">
    <g clip-path="url(#clip0_105_2)">
        <path d="M50 10C27.909 10 9.872 27.909 9.872 50C9.872 72.091 27.909 90 50 90C72.091 90 90.128 72.091 90.128 50C90.128 27.909 72.091 10 50 10Z" fill="#0A0F1F" stroke="#38bdf8" stroke-width="5"/>
        <path d="M50 32.8193C40.611 32.8193 32.946 40.6113 32.946 50.0003C32.946 59.3893 40.611 67.1813 50 67.1813C59.389 67.1813 67.054 59.3893 67.054 50.0003C67.054 40.6113 59.389 32.8193 50 32.8193Z" fill="#38bdf8"/>
        <path d="M50 42.128C45.626 42.128 42.127 45.627 42.127 50.001C42.127 54.375 45.626 57.874 50 57.874C54.374 57.874 57.873 54.375 57.873 50.001C57.873 45.627 54.374 42.128 50 42.128Z" fill="#0A0F1F"/>
    </g>
    <defs>
        <clipPath id="clip0_105_2">
            <rect width="100" height="100" fill="white"/>
        </clipPath>
    </defs>
</svg>
